<svg width="36" height="36" viewBox="0 0 36 36" fill="none" xmlns="http://www.w3.org/2000/svg">
<path d="M31.5 23.9996V11.9996C31.4995 11.4735 31.3606 10.9568 31.0973 10.5014C30.834 10.0459 30.4556 9.66765 30 9.40461L19.5 3.40461C19.0439 3.1413 18.5266 3.00269 18 3.00269C17.4734 3.00269 16.9561 3.1413 16.5 3.40461L6 9.40461C5.54439 9.66765 5.16597 10.0459 4.90269 10.5014C4.63941 10.9568 4.50054 11.4735 4.5 11.9996V23.9996C4.50054 24.5257 4.63941 25.0424 4.90269 25.4979C5.16597 25.9533 5.54439 26.3316 6 26.5946L16.5 32.5946C16.9561 32.8579 17.4734 32.9965 18 32.9965C18.5266 32.9965 19.0439 32.8579 19.5 32.5946L30 26.5946C30.4556 26.3316 30.834 25.9533 31.0973 25.4979C31.3606 25.0424 31.4995 24.5257 31.5 23.9996Z" fill="#3473E6" stroke="#3473E6" stroke-width="3" stroke-linecap="round" stroke-linejoin="round"/>
<path d="M15.7734 17.5856L14.6172 17.2887L15.1875 11.6246H21.0234V12.9606H16.4141L16.0703 16.0543C16.2786 15.9345 16.5417 15.8226 16.8594 15.7184C17.1823 15.6142 17.5521 15.5621 17.9688 15.5621C18.4948 15.5621 18.9661 15.6533 19.3828 15.8356C19.7995 16.0127 20.1536 16.2679 20.4453 16.6012C20.7422 16.9345 20.9688 17.3356 21.125 17.8043C21.2812 18.2731 21.3594 18.7965 21.3594 19.3746C21.3594 19.9215 21.2839 20.4241 21.1328 20.8824C20.987 21.3408 20.7656 21.7418 20.4688 22.0856C20.1719 22.4241 19.7969 22.6871 19.3438 22.8746C18.8958 23.0621 18.3672 23.1559 17.7578 23.1559C17.2995 23.1559 16.8646 23.0934 16.4531 22.9684C16.0469 22.8382 15.6823 22.6429 15.3594 22.3824C15.0417 22.1168 14.7812 21.7887 14.5781 21.3981C14.3802 21.0022 14.2552 20.5387 14.2031 20.0074H15.5781C15.6406 20.4345 15.7656 20.7939 15.9531 21.0856C16.1406 21.3772 16.3854 21.5986 16.6875 21.7496C16.9948 21.8955 17.3516 21.9684 17.7578 21.9684C18.1016 21.9684 18.4062 21.9085 18.6719 21.7887C18.9375 21.6689 19.1615 21.497 19.3438 21.2731C19.526 21.0491 19.6641 20.7783 19.7578 20.4606C19.8568 20.1429 19.9062 19.7861 19.9062 19.3903C19.9062 19.0309 19.8568 18.6976 19.7578 18.3903C19.6589 18.083 19.5104 17.8147 19.3125 17.5856C19.1198 17.3564 18.8828 17.1793 18.6016 17.0543C18.3203 16.9241 17.9974 16.859 17.6328 16.859C17.1484 16.859 16.7812 16.9241 16.5312 17.0543C16.2865 17.1845 16.0339 17.3616 15.7734 17.5856Z" fill="white"/>
</svg>
