<svg width="48" height="48" viewBox="0 0 48 48" fill="none" xmlns="http://www.w3.org/2000/svg">
<circle cx="24" cy="24" r="24" fill="#FFB900"/>
<path d="M29.8881 31.212C30.2127 31.9556 29.7083 32.8153 30.3837 34.1109C31.1135 35.5104 32.8338 35.9891 33.9331 35.9999C34.6561 36.0073 34.7306 35.7001 34.4422 35.5526C33.9854 35.3186 34.0411 34.9685 34.0411 34.9685C34.0411 34.9685 34.3523 35.2562 34.9184 35.4131C35.3349 35.5291 35.795 35.558 35.9365 35.159C36.0586 34.817 34.8319 35.0637 34.2658 33.8487C34.9982 34.1799 35.4006 33.9989 35.7051 33.7474C35.8775 33.6046 36.009 33.3283 35.7782 33.4121C35.5475 33.4959 33.9653 33.6743 33.7346 32.0294C34.4643 32.8549 35.3456 32.7818 35.7595 32.5042C36.0298 32.3224 36.0968 31.9657 35.8332 32.0877C34.8795 32.5276 34.4576 31.6814 33.8379 30.8431C33.0914 29.8326 31.8687 30.1752 31.3656 29.9553C31.1805 29.8735 29.8881 31.212 29.8881 31.212V31.212Z" fill="black"/>
<path d="M18.6804 16.5065C19.2801 17.1066 19.2801 18.079 18.6804 18.6791C18.0802 19.2793 17.1076 19.2793 16.5073 18.6791C15.9071 18.079 15.9071 17.1066 16.5073 16.5065C17.1076 15.907 18.0808 15.907 18.6804 16.5065V16.5065Z" fill="black"/>
<path d="M16.7623 18.7643C17.3626 19.3638 17.3626 20.3368 16.7623 20.937C16.162 21.5371 15.1895 21.5371 14.5898 20.937C13.9902 20.3368 13.9902 19.3645 14.5898 18.7643C15.1895 18.1641 16.1627 18.1641 16.7623 18.7643Z" fill="black"/>
<path d="M15.3027 21.3433C15.9024 21.9434 15.9024 22.9158 15.3027 23.516C14.7025 24.1154 13.7299 24.1154 13.1296 23.516C12.53 22.9158 12.53 21.9434 13.1296 21.3433C13.7299 20.7438 14.7025 20.7438 15.3027 21.3433V21.3433Z" fill="black"/>
<path d="M14.624 24.195C15.2236 24.7952 15.2236 25.7669 14.624 26.3677C14.0237 26.9679 13.0505 26.9679 12.4502 26.3677C11.8499 25.7669 11.8499 24.7952 12.4502 24.195C13.0505 23.5949 14.0237 23.5949 14.624 24.195Z" fill="black"/>
<path d="M14.9292 27.1144C15.5295 27.7146 15.5295 28.6876 14.9292 29.2864C14.3296 29.8859 13.3563 29.8859 12.7567 29.2864C12.1564 28.6869 12.1564 27.7146 12.7567 27.1144C13.3563 26.5142 14.3296 26.5142 14.9292 27.1144Z" fill="black"/>
<path d="M16.5081 29.5408C17.1084 30.1403 17.1084 31.114 16.5081 31.7135C15.9078 32.313 14.9359 32.313 14.335 31.7135C13.7353 31.1133 13.7353 30.1403 14.335 29.5408C14.9353 28.9413 15.9078 28.9413 16.5081 29.5408Z" fill="black"/>
<path d="M19.2411 30.4746C19.8407 31.0755 19.8407 32.0478 19.2411 32.6473C18.6408 33.2468 17.6683 33.2468 17.068 32.6473C16.4684 32.0471 16.4684 31.0748 17.068 30.4746C17.6683 29.8752 18.6408 29.8752 19.2411 30.4746V30.4746Z" fill="black"/>
<path d="M22.195 30.8815C22.7952 31.4823 22.7952 32.4546 22.195 33.0548C21.5947 33.6536 20.6221 33.6536 20.0219 33.0548C19.4222 32.454 19.4222 31.4816 20.0219 30.8815C20.6215 30.2826 21.5947 30.2826 22.195 30.8815Z" fill="black"/>
<path d="M25.0636 30.5593C25.6645 31.1601 25.6645 32.1325 25.0636 32.7326C24.464 33.3321 23.4907 33.3321 22.8911 32.7326C22.2908 32.1318 22.2908 31.1595 22.8911 30.5593C23.4901 29.9605 24.4633 29.9605 25.0636 30.5593Z" fill="black"/>
<path d="M27.882 29.5751C28.4816 30.1753 28.4816 31.1483 27.882 31.7471C27.2817 32.3473 26.3085 32.3473 25.7089 31.7471C25.1086 31.1476 25.1086 30.1746 25.7089 29.5751C26.3085 28.9743 27.2817 28.9743 27.882 29.5751V29.5751ZM18.7656 16.7611C19.3659 17.3612 20.3385 17.3612 20.9388 16.7611C21.5384 16.1609 21.5384 15.1879 20.9388 14.5884C20.3391 13.9889 19.3659 13.9889 18.7656 14.5884C18.1654 15.1886 18.1654 16.1616 18.7656 16.7611Z" fill="black"/>
<path d="M21.3458 15.302C21.9468 15.9015 22.9193 15.9015 23.519 15.302C24.1186 14.7019 24.1186 13.7295 23.519 13.1294C22.9187 12.5299 21.9461 12.5299 21.3458 13.1294C20.7456 13.7295 20.7456 14.7019 21.3458 15.302V15.302Z" fill="black"/>
<path d="M24.1978 14.6228C24.798 15.2223 25.7706 15.2223 26.3709 14.6228C26.9712 14.0226 26.9712 13.0503 26.3709 12.4501C25.7706 11.85 24.798 11.85 24.1978 12.4501C23.5981 13.0503 23.5981 14.0226 24.1978 14.6228V14.6228Z" fill="black"/>
<path d="M27.1173 14.9286C27.7183 15.5288 28.6908 15.5288 29.2904 14.9286C29.8901 14.3291 29.8901 13.3561 29.2904 12.7566C28.6901 12.1564 27.7176 12.1564 27.1173 12.7566C26.517 13.3561 26.517 14.3291 27.1173 14.9286V14.9286Z" fill="black"/>
<path d="M29.5453 16.5063C30.1449 17.1065 31.1175 17.1065 31.7171 16.5063C32.318 15.9061 32.318 14.9345 31.7171 14.3343C31.1168 13.7348 30.1443 13.7348 29.5453 14.3343C28.945 14.9345 28.945 15.9068 29.5453 16.5063Z" fill="black"/>
<path d="M30.4783 19.2391C31.0792 19.8385 32.0518 19.8385 32.6521 19.2391C33.2503 18.6389 33.2503 17.6672 32.6521 17.0664C32.0511 16.4669 31.0786 16.4669 30.4783 17.0664C29.8787 17.6672 29.8787 18.6396 30.4783 19.2391Z" fill="black"/>
<path d="M30.8861 22.1923C31.4864 22.7918 32.4589 22.7918 33.0592 22.1923C33.6582 21.5921 33.6582 20.6198 33.0592 20.0203C32.4583 19.4201 31.4857 19.4201 30.8861 20.0203C30.2865 20.6198 30.2865 21.5928 30.8861 22.1923V22.1923Z" fill="black"/>
<path d="M30.5635 25.0606C31.1638 25.6608 32.1363 25.6608 32.7366 25.0606C33.3362 24.4611 33.3362 23.4881 32.7366 22.8886C32.1356 22.2884 31.1631 22.2884 30.5635 22.8886C29.9639 23.4881 29.9639 24.4611 30.5635 25.0606V25.0606Z" fill="black"/>
<path d="M29.5789 27.8786C30.1798 28.4781 31.1524 28.4781 31.7513 27.8786C32.3516 27.2785 32.3516 26.3048 31.7513 25.7053C31.1517 25.1058 30.1792 25.1058 29.5789 25.7053C28.9786 26.3055 28.9786 27.2785 29.5789 27.8786Z" fill="black"/>
<path d="M30.7976 28.3968C30.1316 27.7309 29.0504 27.7309 28.3837 28.3968C27.7163 29.0627 27.7163 30.1437 28.3837 30.8102L29.9921 31.6149L31.6018 30.0055L30.7976 28.3968V28.3968Z" fill="black"/>
</svg>
